<!DOCTYPE svg PUBLIC "-//W3C//DTD SVG 20010904//EN" "http://www.w3.org/TR/2001/REC-SVG-20010904/DTD/svg10.dtd">
<svg version="1.0" xmlns="http://www.w3.org/2000/svg" width="321px" height="330px" viewBox="0 0 3210 3300" preserveAspectRatio="xMidYMid meet">
<g id="layer101" fill="#0e749c" stroke="none">
 <path d="M0 1650 l0 -1650 1605 0 1605 0 0 1650 0 1650 -1605 0 -1605 0 0 -1650z"/>
 </g>
<g id="layer102" fill="#187ca4" stroke="none">
 <path d="M0 1650 l0 -1650 1605 0 1605 0 0 1650 0 1650 -1605 0 -1605 0 0 -1650z m782 1014 c95 -31 223 -116 281 -187 l35 -42 -40 -30 c-62 -46 -165 -160 -214 -235 -55 -85 -109 -208 -131 -296 -18 -74 -24 -307 -11 -399 l8 -50 -21 45 c-97 211 -143 508 -121 771 13 153 20 193 59 350 l26 106 41 -9 c23 -5 62 -16 88 -24z m2042 -984 c163 -181 296 -332 296 -335 0 -3 -142 -5 -315 -5 l-316 0 -24 53 c-78 168 -68 429 21 549 13 18 27 41 30 51 4 9 8 17 9 17 2 0 136 -148 299 -330z"/>
 </g>
<g id="layer103" fill="#1a89b4" stroke="none">
 <path d="M0 1650 l0 -1650 1605 0 1605 0 0 1650 0 1650 -1605 0 -1605 0 0 -1650z m875 1005 c79 -38 173 -111 219 -169 l31 -38 -35 -26 c-62 -46 -185 -175 -223 -234 -75 -118 -156 -311 -143 -344 3 -7 1 -16 -5 -20 -6 -3 -7 -19 -4 -35 4 -16 3 -34 -1 -41 -10 -15 -10 -181 0 -196 4 -7 5 -25 1 -41 -3 -16 -2 -32 4 -35 6 -4 8 -12 5 -20 -3 -7 0 -26 7 -42 29 -73 13 -70 -22 4 -169 363 -194 813 -69 1236 l22 74 72 -19 c39 -11 103 -35 141 -54z m1835 -845 c96 -107 234 -261 308 -342 l133 -148 -319 0 c-371 0 -368 -1 -400 83 -51 127 -62 245 -37 368 22 112 51 176 86 194 15 8 31 24 34 36 4 12 10 17 14 13 4 -5 86 -97 181 -204z"/>
 </g>
<g id="layer104" fill="#1c9acb" stroke="none">
 <path d="M0 1650 l0 -1650 1605 0 1605 0 0 1650 0 1650 -1605 0 -1605 0 0 -1650z m845 1077 c104 -38 275 -169 311 -238 8 -16 11 -28 7 -27 -9 2 -53 -35 -156 -132 -179 -169 -280 -382 -294 -626 -6 -111 7 -231 37 -328 11 -33 17 -62 15 -65 -8 -7 -92 179 -124 274 -53 159 -72 274 -78 465 -4 130 -1 207 11 297 16 123 61 315 91 390 l16 41 62 -18 c34 -10 80 -25 102 -33z m1975 -1037 c145 -162 279 -312 299 -332 l35 -38 -375 0 c-294 0 -376 3 -376 13 0 6 -13 48 -29 92 -27 74 -29 91 -29 225 0 133 2 152 28 227 16 45 28 86 27 90 0 5 21 10 47 13 44 5 48 7 51 34 l4 29 27 -29 c16 -16 147 -162 291 -324z"/>
 </g>
<g id="layer105" fill="#1da6da" stroke="none">
 <path d="M0 1650 l0 -1650 1605 0 1605 0 0 1650 0 1650 -1605 0 -1605 0 0 -1650z m812 1156 c157 -48 293 -142 381 -262 31 -43 34 -53 21 -58 -75 -29 -244 -178 -324 -285 -174 -235 -225 -555 -135 -840 29 -91 20 -82 -38 34 -54 110 -91 215 -124 355 -34 145 -43 440 -19 610 23 158 82 383 118 453 12 22 28 22 120 -7z m1985 -1088 c159 -178 304 -340 322 -360 l33 -38 -408 0 c-224 0 -405 3 -402 6 4 3 0 22 -8 41 -70 167 -70 405 0 566 9 20 13 38 9 39 -5 1 28 4 72 7 78 6 80 7 83 34 2 15 5 27 7 27 2 0 133 -145 292 -322z"/>
 </g>
<g id="layer106" fill="#02adef" stroke="none">
 <path d="M0 1650 l0 -1650 1605 0 1605 0 0 1650 0 1650 -1605 0 -1605 0 0 -1650z m795 1286 c42 7 204 -63 307 -133 62 -42 170 -142 216 -201 l30 -37 -37 -18 c-20 -9 -50 -27 -68 -39 -17 -13 -60 -41 -94 -62 -137 -86 -276 -244 -348 -397 -105 -218 -118 -490 -37 -715 14 -38 24 -70 22 -71 -8 -9 -119 234 -150 328 -115 352 -107 747 24 1141 59 176 79 219 99 209 9 -5 25 -7 36 -5z m2074 -1296 l282 -315 -422 -3 c-275 -1 -426 1 -433 8 -5 5 -26 10 -46 10 -22 0 -37 5 -37 13 -1 6 -9 39 -18 72 -36 126 -30 366 12 488 16 44 19 47 53 47 20 0 40 4 46 10 5 5 50 10 99 12 l90 3 3 33 3 33 43 -48 c24 -26 170 -190 325 -363z"/>
 </g>
<g id="layer107" fill="#32b7f3" stroke="none">
 <path d="M0 1650 l0 -1650 1605 0 1605 0 0 1650 0 1650 -1605 0 -1605 0 0 -1650z m1686 1599 c5 -8 29 -10 75 -6 43 4 71 2 75 -5 4 -5 19 -7 35 -4 15 3 31 1 35 -5 3 -6 16 -9 27 -8 12 1 29 -1 37 -4 8 -3 43 -13 77 -22 458 -115 843 -430 1044 -854 28 -58 55 -114 60 -123 5 -10 9 -210 9 -458 l0 -440 -429 0 c-276 0 -432 4 -436 10 -3 6 -44 10 -90 10 -46 0 -87 -4 -90 -10 -9 -15 -81 -12 -94 4 -8 9 -11 104 -9 327 l3 314 39 3 c21 2 43 -1 49 -7 14 -14 194 -14 202 -1 3 6 47 10 96 10 97 0 93 -2 103 66 5 37 1 49 -43 116 -101 156 -238 276 -402 352 -101 46 -212 81 -235 72 -7 -3 -16 -1 -20 5 -3 6 -22 8 -44 4 -23 -4 -41 -2 -45 4 -8 14 -112 14 -121 0 -4 -6 -20 -8 -40 -4 -19 3 -39 3 -45 -1 -6 -3 -34 -8 -63 -10 -66 -5 -139 -30 -174 -58 -15 -12 -49 -35 -77 -51 -164 -93 -312 -254 -395 -426 -104 -218 -117 -490 -36 -715 16 -43 22 -72 16 -79 -12 -14 102 -175 188 -266 126 -135 356 -262 493 -273 20 -2 42 -6 47 -10 6 -4 28 -4 50 0 25 4 42 2 46 -5 9 -14 103 -14 111 0 4 6 22 8 45 4 22 -4 41 -2 44 4 4 6 13 8 20 5 43 -16 293 88 395 165 30 23 57 41 60 40 6 0 132 -141 342 -378 l83 -94 -39 -33 c-149 -127 -400 -254 -600 -305 -44 -11 -87 -23 -95 -26 -8 -3 -25 -5 -37 -4 -11 1 -24 -2 -27 -8 -4 -6 -20 -8 -35 -5 -16 3 -31 1 -35 -4 -4 -7 -32 -9 -75 -5 -46 4 -70 2 -75 -6 -4 -6 -18 -11 -31 -11 -13 0 -27 5 -31 11 -5 8 -29 10 -75 6 -43 -4 -71 -2 -75 5 -4 5 -19 7 -35 4 -15 -3 -31 -1 -35 5 -3 6 -16 9 -27 8 -12 -1 -29 1 -37 4 -8 3 -60 18 -115 33 -506 139 -903 514 -1078 1019 -19 55 -40 127 -46 160 -7 33 -15 67 -18 75 -3 8 -5 25 -4 37 1 11 -2 24 -7 27 -6 3 -8 23 -5 45 3 23 1 41 -6 45 -15 10 -15 242 0 252 7 4 9 21 5 45 -4 23 -2 40 5 45 6 3 9 17 6 30 -2 14 -1 27 3 29 4 3 11 26 15 52 11 75 78 270 129 374 25 53 72 134 104 182 58 88 224 287 253 303 9 5 43 30 75 56 32 26 61 47 64 46 3 -1 37 22 77 50 122 87 296 165 466 207 34 9 69 19 77 22 8 3 25 5 37 4 11 -1 24 2 27 8 4 6 20 8 35 5 16 -3 31 -1 35 4 4 7 32 9 75 5 46 -4 70 -2 75 6 4 6 18 11 31 11 13 0 27 -5 31 -11z"/>
 </g>
<g id="layer108" fill="#d4eaf2" stroke="none">
 <path d="M0 1650 l0 -1650 1605 0 1605 0 0 1650 0 1650 -1605 0 -1605 0 0 -1650z m1801 1599 c341 -34 639 -160 900 -377 165 -138 298 -314 404 -534 l55 -113 0 -452 0 -453 -580 0 -580 0 0 330 0 330 248 2 247 3 3 45 c2 37 -4 56 -35 108 -47 80 -166 208 -252 274 -226 171 -541 225 -827 142 -144 -41 -253 -105 -371 -218 -277 -262 -370 -629 -252 -991 36 -110 42 -123 99 -205 60 -86 158 -189 239 -251 320 -242 793 -242 1113 0 l67 51 213 -236 c117 -130 216 -242 221 -249 9 -16 -82 -91 -203 -166 -479 -297 -1072 -326 -1572 -75 -393 197 -674 525 -811 946 -56 172 -72 279 -72 490 0 274 42 460 156 700 286 598 936 966 1590 899z"/>
 </g>
<g id="layer109" fill="#ffffff" stroke="none">
 <path d="M0 1650 l0 -1650 1605 0 1605 0 0 1650 0 1650 -1605 0 -1605 0 0 -1650z m1888 1596 c72 -9 275 -61 314 -80 17 -9 36 -16 42 -16 22 0 266 -128 333 -175 79 -55 73 -50 223 -197 102 -100 201 -226 251 -319 23 -42 71 -141 87 -179 8 -19 19 -43 23 -52 5 -10 9 -221 9 -469 l0 -452 -487 6 c-269 4 -533 7 -588 7 l-100 0 0 330 0 330 241 0 c258 0 264 1 264 52 0 49 -46 126 -144 241 -44 52 -203 187 -220 187 -4 0 -19 9 -34 20 -43 31 -233 89 -345 105 -88 12 -115 12 -202 0 -92 -13 -270 -61 -312 -84 -10 -5 -56 -35 -103 -66 -132 -89 -253 -222 -324 -355 -31 -59 -83 -216 -92 -277 -8 -61 -9 -247 0 -293 3 -19 9 -51 12 -70 3 -19 12 -48 19 -65 7 -16 17 -43 21 -60 4 -16 11 -35 16 -42 5 -7 7 -17 4 -22 -4 -5 0 -13 7 -18 7 -4 25 -29 40 -55 69 -119 258 -310 337 -340 14 -5 32 -16 41 -24 27 -25 226 -84 332 -99 90 -13 114 -13 207 1 109 16 295 72 340 102 14 9 33 21 42 27 38 22 104 70 115 83 10 12 17 10 47 -13 20 -15 36 -31 36 -35 0 -4 21 -30 48 -58 26 -27 72 -78 102 -112 30 -35 71 -79 90 -100 19 -20 61 -66 93 -101 l58 -64 -23 -17 c-13 -9 -32 -25 -42 -34 -76 -68 -274 -184 -401 -234 -11 -4 -36 -15 -55 -23 -76 -33 -227 -70 -340 -84 -72 -9 -360 -9 -430 0 -114 14 -265 52 -340 84 -19 8 -44 18 -55 23 -35 13 -189 90 -220 110 -16 11 -43 27 -60 36 -74 41 -254 204 -358 324 -30 35 -109 144 -119 165 -5 11 -20 38 -33 60 -14 22 -32 56 -41 75 -9 19 -27 58 -40 85 -13 28 -24 57 -24 66 0 8 -4 19 -9 25 -11 11 -58 173 -67 229 -3 22 -8 54 -10 70 -24 154 -24 336 1 495 2 14 6 44 10 68 15 103 93 322 146 412 5 8 18 33 29 55 30 60 58 104 102 164 54 72 54 72 166 183 136 136 138 138 150 138 6 0 15 6 19 13 7 12 55 45 148 105 25 15 182 92 215 105 14 5 33 13 42 18 28 14 231 69 236 64 3 -2 12 0 22 5 9 5 45 12 80 15 35 3 66 8 69 10 6 6 325 -1 389 -9z"/>
 </g>

</svg>