<!DOCTYPE svg PUBLIC "-//W3C//DTD SVG 20010904//EN" "http://www.w3.org/TR/2001/REC-SVG-20010904/DTD/svg10.dtd">
<svg version="1.0" xmlns="http://www.w3.org/2000/svg" width="153px" height="200px" viewBox="0 0 1530 2000" preserveAspectRatio="xMidYMid meet">
<g id="layer101" fill="#000000" stroke="none">
 <path d="M437 1993 c-4 -3 -7 -14 -7 -24 0 -17 -2 -17 -29 -1 -28 16 -31 15 -50 -2 -31 -28 -26 -71 19 -164 28 -59 48 -87 72 -102 29 -17 34 -18 47 -5 11 11 13 23 5 51 -12 49 -40 61 -31 14 6 -28 5 -31 -8 -20 -25 21 -75 132 -75 167 0 40 14 40 44 -1 18 -23 19 -28 6 -37 -13 -8 -12 -11 4 -24 11 -8 28 -15 39 -15 16 0 18 5 13 33 -3 17 -8 56 -12 85 -6 48 -19 64 -37 45z"/>
 <path d="M810 1925 c-9 -11 -16 -13 -24 -5 -17 17 -43 11 -51 -12 l-8 -23 -4 23 c-5 23 -43 32 -43 10 0 -9 -3 -9 -12 0 -17 17 -55 15 -66 -4 -8 -14 -10 -14 -21 0 -21 25 -60 20 -73 -9 -14 -32 4 -100 32 -115 44 -23 68 21 30 55 -11 10 -20 26 -20 37 0 35 21 18 45 -36 14 -32 32 -57 44 -61 43 -13 54 20 21 62 -21 27 -26 53 -10 53 18 0 38 -44 50 -112 13 -74 30 -105 49 -93 12 7 11 20 -5 80 -5 18 -4 18 11 -2 37 -52 58 -8 21 45 -21 30 -24 43 -17 67 l8 30 26 -56 c29 -62 48 -76 71 -53 17 17 11 44 -10 44 -9 0 -14 11 -14 30 0 17 2 30 4 30 16 0 44 -75 49 -126 5 -68 22 -111 50 -128 40 -25 44 45 6 133 -11 24 -19 53 -19 65 1 19 2 18 16 -6 8 -16 23 -28 34 -28 17 0 20 7 20 47 0 53 11 48 28 -13 14 -49 35 -69 59 -59 28 12 63 15 63 5 0 -5 -6 -10 -12 -13 -10 -3 -9 -8 2 -22 8 -10 20 -36 25 -59 7 -27 16 -42 29 -44 17 -4 18 0 12 37 -5 34 -4 39 9 35 22 -9 19 12 -4 28 -21 15 -43 108 -30 129 5 9 10 4 14 -14 4 -15 13 -27 21 -27 18 0 18 4 -1 40 -11 21 -23 30 -40 30 -14 0 -25 -5 -25 -12 0 -6 -9 -3 -20 7 -19 17 -22 17 -36 3 -15 -15 -64 -13 -64 2 0 15 -41 22 -55 10 -8 -7 -15 -22 -15 -34 -1 -19 -2 -18 -16 7 -17 31 -26 33 -44 12 -12 -14 -15 -13 -35 5 -26 24 -38 25 -55 5z m280 -76 c0 -6 -4 -7 -10 -4 -5 3 -10 11 -10 16 0 6 5 7 10 4 6 -3 10 -11 10 -16z m47 -6 c-4 -3 -7 0 -7 7 0 7 3 10 7 7 3 -4 3 -10 0 -14z"/>
 <path d="M0 765 l0 -765 765 0 765 0 0 765 0 765 -765 0 -765 0 0 -765z m1301 462 c-45 -43 -81 -80 -81 -83 0 -3 11 -20 24 -37 67 -90 116 -231 116 -339 l0 -58 -347 1 -348 0 220 215 220 215 -25 19 c-101 79 -254 119 -378 101 -277 -40 -484 -308 -442 -573 26 -173 120 -307 271 -388 182 -97 416 -73 560 57 l40 36 30 -30 30 -30 -43 -35 c-114 -92 -227 -132 -378 -132 -131 -1 -222 26 -327 97 -126 84 -215 211 -249 353 -21 91 -14 244 16 331 56 161 182 290 350 359 52 22 86 28 174 32 158 7 253 -19 375 -102 l55 -37 80 80 80 81 29 -28 28 -27 -80 -78z"/>
 <path d="M1010 935 l-145 -145 209 0 209 0 -7 41 c-10 63 -42 146 -77 200 -17 27 -34 49 -38 49 -3 0 -71 -65 -151 -145z"/>
 </g>
<g id="layer102" fill="#f47c48" stroke="none">
 <path d="M0 765 l0 -765 765 0 765 0 0 765 0 765 -765 0 -765 0 0 -765z m1301 462 c-45 -43 -81 -80 -81 -83 0 -3 11 -20 24 -37 67 -90 116 -231 116 -339 l0 -58 -347 1 -348 0 220 215 220 215 -25 19 c-101 79 -254 119 -378 101 -277 -40 -484 -308 -442 -573 26 -173 120 -307 271 -388 182 -97 416 -73 560 57 l40 36 30 -30 30 -30 -43 -35 c-114 -92 -227 -132 -378 -132 -131 -1 -222 26 -327 97 -126 84 -215 211 -249 353 -21 91 -14 244 16 331 56 161 182 290 350 359 52 22 86 28 174 32 158 7 253 -19 375 -102 l55 -37 80 80 80 81 29 -28 28 -27 -80 -78z"/>
 <path d="M1010 935 l-145 -145 209 0 209 0 -7 41 c-10 63 -42 146 -77 200 -17 27 -34 49 -38 49 -3 0 -71 -65 -151 -145z"/>
 </g>

</svg>